<svg xmlns="http://www.w3.org/2000/svg" xmlns:xlink="http://www.w3.org/1999/xlink"
  viewBox="0 0 773.86962890625 310.11163330078125" fill="none">
  <g opacity="0.861">
    <path
      d="M160.111 0.0609275C167.824 -0.433774 169.157 2.05623 173.111 8.55093C174.239 11.136 175.072 13.8027 175.611 16.5509C175.273 25.2305 175.94 17.9171 175.611 26.5709C176.663 26.4214 175.611 41.0737 173.111 44.0709C170.611 47.0681 161.248 44.8922 153.111 45.5509C144.51 45.5509 143.611 35.569 144.111 33.0709C144.611 30.5728 144.111 31.571 144.111 28.0509C144.111 23.5682 144.338 23.8898 144.611 22.0609C144.547 15.8439 151.047 8.34391 153.111 2.56093C155.847 0.309027 157.18 1.80903 160.111 0.0609275Z"
      fill="#BDBDBD">
</path>
  </g>
  <g opacity="0.884">
    <path
      d="M615 0.293289C625.009 -1.16811 631.509 2.83189 634.5 12.2933C635.167 21.96 635.167 31.6266 634.5 41.2933C634.126 42.2095 633.626 43.0429 633 43.7933C624 44.46 615 44.46 606 43.7933C605.5 43.2933 605 42.7933 604.5 42.2933C603.833 31.96 603.833 21.6266 604.5 11.2933C606.875 6.42109 610.375 2.75449 615 0.293289Z"
      fill="#BDBDBD">
</path>
  </g>
  <g opacity="0.909">
    <path
      d="M70.8508 12.3098C88.7458 11.2895 106.413 12.7895 123.851 16.8098C126.934 17.949 129.934 19.2823 132.851 20.8098C134.838 22.1287 132.851 20.8098 135.351 22.3098C137.444 23.5658 137.854 23.3089 138.851 27.3098C139.895 31.4987 132.976 33.6969 129.851 36.8098C120.036 41.3744 109.702 44.041 98.8508 44.8098C66.2368 45.6744 34.2368 41.6744 2.85077 32.8098C-0.581029 30.4428 -0.914426 27.7761 1.85077 24.8098C5.95597 23.6078 12.3608 21.8098 12.3608 21.8098C12.3608 21.8098 14.3585 21.3098 15.3608 21.3098C33.8018 17.3201 52.2918 14.3201 70.8508 12.3098Z"
      fill="#BDBDBD">
</path>
  </g>
  <g opacity="0.911">
    <path
      d="M530.742 12.3961C550.814 11.0303 570.481 13.1969 589.742 18.896C596.199 22.7878 597.366 27.9545 593.242 34.3961C582.736 40.9015 571.236 44.4015 558.742 44.8961C526.5 45.4807 494.834 41.4807 463.742 32.8961C459.51 28.9841 460.177 25.9841 465.742 23.8961C487.273 18.5312 508.94 14.6978 530.742 12.3961Z"
      fill="#BDBDBD">
</path>
  </g>
  <g opacity="0.812">
    <path
      d="M251 20.1431C269.813 19.7244 289.146 20.2244 309 21.6431C315.471 25.9215 315.471 30.2548 309 34.6431C283.042 42.1349 256.709 46.3016 230 47.1431C212.813 47.0042 196.48 43.3375 181 36.1431C181 32.6525 181 30.4259 181 27.1431C181 26.1525 182.873 23.3964 184 21.6431C206.504 21.4751 228.837 20.9751 251 20.1431Z"
      fill="#BDBDBD">
</path>
  </g>
  <g opacity="0.894">
    <path
      d="M645.945 23.0625C687.28 22.8958 728.613 23.0625 769.945 23.5625C774.138 25.7956 774.971 28.9622 772.445 33.0625C764.85 35.9207 757.017 38.0874 748.945 39.5625C725.177 44.5 701.177 46.5 676.945 45.5625C666.53 44.4586 656.53 41.7919 646.945 37.5625C640.704 32.9997 640.371 28.1663 645.945 23.0625Z"
      fill="#BDBDBD">
</path>
  </g>
  <g opacity="0.903">
    <path
      d="M153 53C163.693 53.5256 174.36 54.3589 185 55.5C187.527 58.0736 188.694 61.2403 188.5 65C189.304 71.069 188.971 77.069 187.5 83C186.333 84.167 185.167 85.333 184 86.5C166.242 87.472 148.576 87.139 131 85.5C130.167 84.667 129.333 83.833 128.5 83C127.833 75 127.833 67 128.5 59C130.043 57.1217 131.876 55.6217 134 54.5C140.513 54.3279 146.847 53.8279 153 53Z"
      fill="#BDBDBD">
</path>
  </g>
  <g opacity="0.964">
    <path
      d="M370.23 53.15C392.051 52.4824 413.717 53.9824 435.23 57.65C478.456 69.392 521.789 80.725 565.23 91.65C572.518 93.241 579.85 94.574 587.23 95.65C608.897 95.983 630.563 96.317 652.23 96.65C656.007 98.095 658.841 100.595 660.73 104.15C661.397 111.15 661.397 118.15 660.73 125.15C659.46 129.42 656.626 131.92 652.23 132.65C593.494 130.158 536.16 137.825 480.23 155.65C476.44 158.027 472.44 160.027 468.23 161.65C462.446 166.765 456.112 171.098 449.23 174.65C442.988 176.02 436.655 176.52 430.23 176.15C431.324 182.344 429.658 187.511 425.23 191.65C399.897 192.317 374.563 192.317 349.23 191.65C344.044 188.284 342.044 183.451 343.23 177.15C331.102 178.444 320.769 174.944 312.23 166.65C294.908 155.205 275.908 147.872 255.23 144.65C211.465 134.459 167.133 130.459 122.23 132.65C115.118 129.304 112.118 123.637 113.23 115.65C112.602 108.648 114.602 102.648 119.23 97.65C120.23 97.317 121.23 96.983 122.23 96.65C143.23 96.317 164.23 95.983 185.23 95.65C195.033 94.418 207.71 91.67 207.71 91.67L216.2 89.68C216.2 89.68 223.776 87.7258 225.7 87.18C261.082 77.143 295.945 68.28 332.23 58.65C344.971 56.2826 357.637 54.4492 370.23 53.15ZM304.23 112.15C359.571 112.46 414.404 112.46 468.73 112.15C475.93 115.658 476.764 120.158 471.23 125.65C415.23 126.317 359.23 126.317 303.23 125.65C297.831 120.789 298.164 116.289 304.23 112.15Z"
      fill="#BDBDBD">
</path>
  </g>
  <g opacity="0.912">
    <path
      d="M597.002 54.0625C612.006 53.8959 627.006 54.0626 642.002 54.5625C644.996 54.9682 647.163 56.4682 648.502 59.0625C649.169 67.0625 649.169 75.0625 648.502 83.0625C647.288 84.6115 645.788 85.7775 644.002 86.5625C628.335 87.2295 612.669 87.2295 597.002 86.5625C594.55 86.2725 592.217 85.6065 590.002 84.5625C587.511 75.8295 587.345 66.9955 589.502 58.0625C591.615 55.8292 594.115 54.4959 597.002 54.0625Z"
      fill="#BDBDBD">
</path>
  </g>
  <g opacity="0.898">
    <path
      d="M293.985 172C296.708 172.852 299.375 174.019 301.985 175.5C304.142 177.412 306.476 179.079 308.985 180.5C310.289 181.304 310.956 182.471 310.985 184C305.448 195.445 301.615 207.445 299.485 220C298.235 246.975 297.569 273.975 297.485 301C295.107 305.701 291.273 308.534 285.985 309.5C279.626 310.598 273.626 309.598 267.985 306.5C265.194 302.399 264.36 297.899 265.485 293C267.705 288.808 271.205 287.141 275.985 288C275.569 263.969 276.069 239.969 277.485 216C279.938 200.112 285.438 185.445 293.985 172Z"
      fill="#BDBDBD">
</path>
  </g>
  <g opacity="0.86">
    <path
      d="M476 171.112C479.308 170.586 481.474 171.919 482.5 175.112C489.826 188.497 495.159 198.997 497.5 213.612C498 223.129 498.09 225.394 498 227.122C498 235.125 498 233.126 498 240.132C497.366 252.988 497.199 271.301 497.5 284.112C509.271 287.113 512.271 294.113 506.5 305.112C502.783 308.295 498.45 309.962 493.5 310.112C488.602 308.983 483.768 307.483 479 305.612C476.673 303.616 475.173 301.116 474.5 298.112C474.167 271.779 473.833 245.445 473.5 219.112C471.27 206.422 467.436 194.255 462 182.612C462.085 181.505 462.419 180.505 463 179.612C467.74 177.252 472.074 174.419 476 171.112Z"
      fill="#BDBDBD">
</path>
  </g>
  <g opacity="0.893">
    <path
      d="M386.185 198C393.328 198.073 399.995 199.906 406.185 203.5C411.586 207.44 416.419 211.94 420.685 217C421.63 216.595 422.297 215.928 422.685 215C423.018 213 423.352 211 423.685 209C427.956 207.004 432.456 206.504 437.185 207.5C438.352 208.667 439.518 209.833 440.685 211C441.352 225.667 441.352 240.333 440.685 255C436.434 260.02 431.267 261.187 425.185 258.5C423.308 256.374 422.308 253.874 422.185 251C417.836 253.509 414.169 257.009 411.185 261.5C401.568 269.361 390.568 272.028 378.185 269.5C366.966 266.449 358.966 259.616 354.185 249C353.36 248.114 352.36 247.781 351.185 248C347.861 232.709 351.528 219.542 362.185 208.5C369.039 202.167 377.039 198.667 386.185 198ZM384.185 218C394.605 218.26 400.938 223.427 403.185 233.5C400.967 247.614 392.967 252.614 379.185 248.5C368.529 239.199 368.529 229.866 379.185 220.5C381 219.743 382.666 218.91 384.185 218Z"
      fill="#BDBDBD">
</path>
  </g>
  <g opacity="0.833">
    <path
      d="M336 207.062C339.682 206.897 343.348 207.063 347 207.562C347.626 208.312 348.126 209.146 348.5 210.062C348.89 214.076 349.39 218.076 350 222.062C348.731 231.285 348.731 240.452 350 249.562C349.547 252.789 348.547 255.789 347 258.562C343.333 259.229 339.667 259.229 336 258.562C334.013 257.243 332.846 255.41 332.5 253.062C331.833 240.062 331.833 227.062 332.5 214.062C332.633 211.158 333.8 208.824 336 207.062Z"
      fill="#BDBDBD">
</path>
  </g>
  <g mask="url(#mask-4_2)">
    <rect x="0.3592529296875" y="0.074676513671875" width="774" height="310"
      fill="url(#linear_fill_4_3)">
</rect>
  </g>
  <defs>
    <mask id="mask-4_2" style="mask-type:alpha" maskUnits="userSpaceOnUse">
      <g opacity="0.861">
        <path
          d="M160.111 0.0609275C167.824 -0.433774 169.157 2.05623 173.111 8.55093C174.239 11.136 175.072 13.8027 175.611 16.5509C175.273 25.2305 175.94 17.9171 175.611 26.5709C176.663 26.4214 175.611 41.0737 173.111 44.0709C170.611 47.0681 161.248 44.8922 153.111 45.5509C144.51 45.5509 143.611 35.569 144.111 33.0709C144.611 30.5728 144.111 31.571 144.111 28.0509C144.111 23.5682 144.338 23.8898 144.611 22.0609C144.547 15.8439 151.047 8.34391 153.111 2.56093C155.847 0.309027 157.18 1.80903 160.111 0.0609275Z"
          fill="#BDBDBD">
</path>
      </g>
      <g opacity="0.884">
        <path
          d="M615 0.293289C625.009 -1.16811 631.509 2.83189 634.5 12.2933C635.167 21.96 635.167 31.6266 634.5 41.2933C634.126 42.2095 633.626 43.0429 633 43.7933C624 44.46 615 44.46 606 43.7933C605.5 43.2933 605 42.7933 604.5 42.2933C603.833 31.96 603.833 21.6266 604.5 11.2933C606.875 6.42109 610.375 2.75449 615 0.293289Z"
          fill="#BDBDBD">
</path>
      </g>
      <g opacity="0.909">
        <path
          d="M70.8508 12.3098C88.7458 11.2895 106.413 12.7895 123.851 16.8098C126.934 17.949 129.934 19.2823 132.851 20.8098C134.838 22.1287 132.851 20.8098 135.351 22.3098C137.444 23.5658 137.854 23.3089 138.851 27.3098C139.895 31.4987 132.976 33.6969 129.851 36.8098C120.036 41.3744 109.702 44.041 98.8508 44.8098C66.2368 45.6744 34.2368 41.6744 2.85077 32.8098C-0.581029 30.4428 -0.914426 27.7761 1.85077 24.8098C5.95597 23.6078 12.3608 21.8098 12.3608 21.8098C12.3608 21.8098 14.3585 21.3098 15.3608 21.3098C33.8018 17.3201 52.2918 14.3201 70.8508 12.3098Z"
          fill="#BDBDBD">
</path>
      </g>
      <g opacity="0.911">
        <path
          d="M530.742 12.3961C550.814 11.0303 570.481 13.1969 589.742 18.896C596.199 22.7878 597.366 27.9545 593.242 34.3961C582.736 40.9015 571.236 44.4015 558.742 44.8961C526.5 45.4807 494.834 41.4807 463.742 32.8961C459.51 28.9841 460.177 25.9841 465.742 23.8961C487.273 18.5312 508.94 14.6978 530.742 12.3961Z"
          fill="#BDBDBD">
</path>
      </g>
      <g opacity="0.812">
        <path
          d="M251 20.1431C269.813 19.7244 289.146 20.2244 309 21.6431C315.471 25.9215 315.471 30.2548 309 34.6431C283.042 42.1349 256.709 46.3016 230 47.1431C212.813 47.0042 196.48 43.3375 181 36.1431C181 32.6525 181 30.4259 181 27.1431C181 26.1525 182.873 23.3964 184 21.6431C206.504 21.4751 228.837 20.9751 251 20.1431Z"
          fill="#BDBDBD">
</path>
      </g>
      <g opacity="0.894">
        <path
          d="M645.945 23.0625C687.28 22.8958 728.613 23.0625 769.945 23.5625C774.138 25.7956 774.971 28.9622 772.445 33.0625C764.85 35.9207 757.017 38.0874 748.945 39.5625C725.177 44.5 701.177 46.5 676.945 45.5625C666.53 44.4586 656.53 41.7919 646.945 37.5625C640.704 32.9997 640.371 28.1663 645.945 23.0625Z"
          fill="#BDBDBD">
</path>
      </g>
      <g opacity="0.903">
        <path
          d="M153 53C163.693 53.5256 174.36 54.3589 185 55.5C187.527 58.0736 188.694 61.2403 188.5 65C189.304 71.069 188.971 77.069 187.5 83C186.333 84.167 185.167 85.333 184 86.5C166.242 87.472 148.576 87.139 131 85.5C130.167 84.667 129.333 83.833 128.5 83C127.833 75 127.833 67 128.5 59C130.043 57.1217 131.876 55.6217 134 54.5C140.513 54.3279 146.847 53.8279 153 53Z"
          fill="#BDBDBD">
</path>
      </g>
      <g opacity="0.964">
        <path
          d="M370.23 53.15C392.051 52.4824 413.717 53.9824 435.23 57.65C478.456 69.392 521.789 80.725 565.23 91.65C572.518 93.241 579.85 94.574 587.23 95.65C608.897 95.983 630.563 96.317 652.23 96.65C656.007 98.095 658.841 100.595 660.73 104.15C661.397 111.15 661.397 118.15 660.73 125.15C659.46 129.42 656.626 131.92 652.23 132.65C593.494 130.158 536.16 137.825 480.23 155.65C476.44 158.027 472.44 160.027 468.23 161.65C462.446 166.765 456.112 171.098 449.23 174.65C442.988 176.02 436.655 176.52 430.23 176.15C431.324 182.344 429.658 187.511 425.23 191.65C399.897 192.317 374.563 192.317 349.23 191.65C344.044 188.284 342.044 183.451 343.23 177.15C331.102 178.444 320.769 174.944 312.23 166.65C294.908 155.205 275.908 147.872 255.23 144.65C211.465 134.459 167.133 130.459 122.23 132.65C115.118 129.304 112.118 123.637 113.23 115.65C112.602 108.648 114.602 102.648 119.23 97.65C120.23 97.317 121.23 96.983 122.23 96.65C143.23 96.317 164.23 95.983 185.23 95.65C195.033 94.418 207.71 91.67 207.71 91.67L216.2 89.68C216.2 89.68 223.776 87.7258 225.7 87.18C261.082 77.143 295.945 68.28 332.23 58.65C344.971 56.2826 357.637 54.4492 370.23 53.15ZM304.23 112.15C359.571 112.46 414.404 112.46 468.73 112.15C475.93 115.658 476.764 120.158 471.23 125.65C415.23 126.317 359.23 126.317 303.23 125.65C297.831 120.789 298.164 116.289 304.23 112.15Z"
          fill="#BDBDBD">
</path>
      </g>
      <g opacity="0.912">
        <path
          d="M597.002 54.0625C612.006 53.8959 627.006 54.0626 642.002 54.5625C644.996 54.9682 647.163 56.4682 648.502 59.0625C649.169 67.0625 649.169 75.0625 648.502 83.0625C647.288 84.6115 645.788 85.7775 644.002 86.5625C628.335 87.2295 612.669 87.2295 597.002 86.5625C594.55 86.2725 592.217 85.6065 590.002 84.5625C587.511 75.8295 587.345 66.9955 589.502 58.0625C591.615 55.8292 594.115 54.4959 597.002 54.0625Z"
          fill="#BDBDBD">
</path>
      </g>
      <g opacity="0.898">
        <path
          d="M293.985 172C296.708 172.852 299.375 174.019 301.985 175.5C304.142 177.412 306.476 179.079 308.985 180.5C310.289 181.304 310.956 182.471 310.985 184C305.448 195.445 301.615 207.445 299.485 220C298.235 246.975 297.569 273.975 297.485 301C295.107 305.701 291.273 308.534 285.985 309.5C279.626 310.598 273.626 309.598 267.985 306.5C265.194 302.399 264.36 297.899 265.485 293C267.705 288.808 271.205 287.141 275.985 288C275.569 263.969 276.069 239.969 277.485 216C279.938 200.112 285.438 185.445 293.985 172Z"
          fill="#BDBDBD">
</path>
      </g>
      <g opacity="0.86">
        <path
          d="M476 171.112C479.308 170.586 481.474 171.919 482.5 175.112C489.826 188.497 495.159 198.997 497.5 213.612C498 223.129 498.09 225.394 498 227.122C498 235.125 498 233.126 498 240.132C497.366 252.988 497.199 271.301 497.5 284.112C509.271 287.113 512.271 294.113 506.5 305.112C502.783 308.295 498.45 309.962 493.5 310.112C488.602 308.983 483.768 307.483 479 305.612C476.673 303.616 475.173 301.116 474.5 298.112C474.167 271.779 473.833 245.445 473.5 219.112C471.27 206.422 467.436 194.255 462 182.612C462.085 181.505 462.419 180.505 463 179.612C467.74 177.252 472.074 174.419 476 171.112Z"
          fill="#BDBDBD">
</path>
      </g>
      <g opacity="0.893">
        <path
          d="M386.185 198C393.328 198.073 399.995 199.906 406.185 203.5C411.586 207.44 416.419 211.94 420.685 217C421.63 216.595 422.297 215.928 422.685 215C423.018 213 423.352 211 423.685 209C427.956 207.004 432.456 206.504 437.185 207.5C438.352 208.667 439.518 209.833 440.685 211C441.352 225.667 441.352 240.333 440.685 255C436.434 260.02 431.267 261.187 425.185 258.5C423.308 256.374 422.308 253.874 422.185 251C417.836 253.509 414.169 257.009 411.185 261.5C401.568 269.361 390.568 272.028 378.185 269.5C366.966 266.449 358.966 259.616 354.185 249C353.36 248.114 352.36 247.781 351.185 248C347.861 232.709 351.528 219.542 362.185 208.5C369.039 202.167 377.039 198.667 386.185 198ZM384.185 218C394.605 218.26 400.938 223.427 403.185 233.5C400.967 247.614 392.967 252.614 379.185 248.5C368.529 239.199 368.529 229.866 379.185 220.5C381 219.743 382.666 218.91 384.185 218Z"
          fill="#BDBDBD">
</path>
      </g>
      <g opacity="0.833">
        <path
          d="M336 207.062C339.682 206.897 343.348 207.063 347 207.562C347.626 208.312 348.126 209.146 348.5 210.062C348.89 214.076 349.39 218.076 350 222.062C348.731 231.285 348.731 240.452 350 249.562C349.547 252.789 348.547 255.789 347 258.562C343.333 259.229 339.667 259.229 336 258.562C334.013 257.243 332.846 255.41 332.5 253.062C331.833 240.062 331.833 227.062 332.5 214.062C332.633 211.158 333.8 208.824 336 207.062Z"
          fill="#BDBDBD">
</path>
      </g>
    </mask>
    <linearGradient id="linear_fill_4_3" x1="144.7799129296875" y1="-31.976223486328124"
      x2="795.2185529296876" y2="352.18817651367186" gradientUnits="userSpaceOnUse">
      <stop offset="0" stop-color="#2E74E6" />
      <stop offset="1" stop-color="#4091E3" />
    </linearGradient>
  </defs>
</svg>